<?xml version="1.0" encoding="utf-8"?>
<!-- Generator: Adobe Illustrator 20.0.0, SVG Export Plug-In . SVG Version: 6.00 Build 0)  -->
<svg version="1.1" id="Layer_1" xmlns="http://www.w3.org/2000/svg" xmlns:xlink="http://www.w3.org/1999/xlink" x="0px" y="0px"
	 viewBox="0 0 24 24" style="enable-background:new 0 0 24 24;" xml:space="preserve">
<style type="text/css">
	.st0{fill:#0068FF;}
</style>
<path class="st0" d="M21.6,5.3l-2.9-2.9C18.4,2.1,18,2,17.6,2c-0.4,0-0.8,0.1-1.1,0.4L13,6H4C3.4,6,3,6.4,3,7v13c0,0.6,0.4,1,1,1h13
	c0.6,0,1-0.4,1-1v-9l3.6-3.6C21.9,7.1,22,6.8,22,6.4S21.9,5.6,21.6,5.3z M11.5,14.7l-2.2-2.2l6.3-6.3l2.2,2.2L11.5,14.7z M8.9,13.3
	l1.8,1.7L9,15C9,15,8.9,13.3,8.9,13.3z M16,19H5V8h6l-3.2,3.2c-0.3,0.3-0.5,0.8-0.6,1.3C7,13,7,13.5,7,13.9V17h3.1
	c0.4,0,1.1-0.1,1.6-0.3c0.5-0.2,0.9-0.3,1.2-0.6L16,13V19z M18.5,7.7l-2.2-2.2l1.3-1.3l2.2,2.2C19.8,6.4,18.5,7.7,18.5,7.7z"/>
</svg>
